{
	"asset":{
		"generator":"Khronos glTF Blender I/O v4.1.63",
		"version":"2.0"
	},
	"scene":0,
	"scenes":[
		{
			"name":"Scene",
			"nodes":[
				11,
				12
			]
		}
	],
	"nodes":[
		{
			"name":"Bottle_Low"
		},
		{
			"name":"Joint_Low"
		},
		{
			"name":"Main_Low"
		},
		{
			"name":"Switch1_Low"
		},
		{
			"name":"Switch2_Low"
		},
		{
			"name":"Tap1_Low"
		},
		{
			"name":"Tap2_Low",
			"translation":[
				9.396265029907227,
				0,
				0
			]
		},
		{
			"name":"TapConnector1_Low"
		},
		{
			"name":"TapConnector2_Low",
			"translation":[
				9.39626407623291,
				0,
				0
			]
		},
		{
			"children":[
				0,
				1,
				2,
				3,
				4,
				5,
				6,
				7,
				8
			],
			"name":"Cooler_Low"
		},
		{
			"children":[
				9
			],
			"name":"Collada visual scene group",
			"rotation":[
				0.70710688829422,
				0,
				0,
				0.7071066498756409
			]
		},
		{
			"children":[
				10
			],
			"name":"Sketchfab_model",
			"rotation":[
				-0.70710688829422,
				0,
				0,
				0.7071066498756409
			],
			"scale":[
				0.031075194478034973,
				0.03107519820332527,
				0.03107519820332527
			]
		},
		{
			"mesh":0,
			"name":"defaultMaterial.001",
			"scale":[
				0.03533405438065529,
				0.03533405438065529,
				0.03533405438065529
			],
			"translation":[
				0,
				-7.62939453125e-06,
				0
			]
		}
	],
	"materials":[
		{
			"alphaMode":"BLEND",
			"doubleSided":true,
			"emissiveFactor":[
				1,
				1,
				1
			],
			"emissiveTexture":{
				"index":0
			},
			"name":"lambert1",
			"normalTexture":{
				"index":1
			},
			"occlusionTexture":{
				"index":2
			},
			"pbrMetallicRoughness":{
				"baseColorTexture":{
					"index":3
				},
				"metallicRoughnessTexture":{
					"index":2
				}
			}
		}
	],
	"meshes":[
		{
			"name":"defaultMaterial.001",
			"primitives":[
				{
					"attributes":{
						"POSITION":0,
						"NORMAL":1,
						"TEXCOORD_0":2
					},
					"indices":3,
					"material":0
				}
			]
		}
	],
	"textures":[
		{
			"sampler":0,
			"source":0
		},
		{
			"sampler":0,
			"source":1
		},
		{
			"sampler":0,
			"source":2
		},
		{
			"sampler":0,
			"source":3
		}
	],
	"images":[
		{
			"mimeType":"image/jpeg",
			"name":"lambert1_emissive",
			"uri":"lambert1_emissive.jpg"
		},
		{
			"mimeType":"image/png",
			"name":"lambert1_normal",
			"uri":"lambert1_normal.png"
		},
		{
			"mimeType":"image/png",
			"name":"lambert1_metallicRoughness",
			"uri":"lambert1_metallicRoughness.png"
		},
		{
			"mimeType":"image/png",
			"name":"lambert1_baseColor",
			"uri":"lambert1_baseColor.png"
		}
	],
	"accessors":[
		{
			"bufferView":0,
			"componentType":5126,
			"count":2053,
			"max":[
				15.499999046325684,
				138.25994873046875,
				17.681488037109375
			],
			"min":[
				-15.5,
				0.0743255615234375,
				-16.11348533630371
			],
			"type":"VEC3"
		},
		{
			"bufferView":1,
			"componentType":5126,
			"count":2053,
			"type":"VEC3"
		},
		{
			"bufferView":2,
			"componentType":5126,
			"count":2053,
			"type":"VEC2"
		},
		{
			"bufferView":3,
			"componentType":5123,
			"count":6552,
			"type":"SCALAR"
		}
	],
	"bufferViews":[
		{
			"buffer":0,
			"byteLength":24636,
			"byteOffset":0,
			"target":34962
		},
		{
			"buffer":0,
			"byteLength":24636,
			"byteOffset":24636,
			"target":34962
		},
		{
			"buffer":0,
			"byteLength":16424,
			"byteOffset":49272,
			"target":34962
		},
		{
			"buffer":0,
			"byteLength":13104,
			"byteOffset":65696,
			"target":34963
		}
	],
	"samplers":[
		{
			"magFilter":9729,
			"minFilter":9987
		}
	],
	"buffers":[
		{
			"byteLength":78800,
			"uri":"new.bin"
		}
	]
}
