{
	"asset":{
		"generator":"Khronos glTF Blender I/O v4.1.63",
		"version":"2.0"
	},
	"extensionsUsed":[
		"KHR_materials_clearcoat",
		"KHR_materials_transmission"
	],
	"scene":0,
	"scenes":[
		{
			"name":"Scene",
			"nodes":[
				0,
				1,
				2,
				3,
				4
			]
		}
	],
	"nodes":[
		{
			"name":"Sketchfab_model",
			"rotation":[
				1,
				0,
				0,
				0
			],
			"scale":[
				0.015832366421818733,
				0.015832366421818733,
				0.015832366421818733
			],
			"translation":[
				-9.760519981384277,
				0,
				6.038882255554199
			]
		},
		{
			"name":"NoguchiCoffeeTable.obj.cleaner.materialmerger.gles",
			"rotation":[
				-0.70710688829422,
				0,
				0,
				0.7071066498756409
			],
			"scale":[
				0.015832366421818733,
				0.015832368284463882,
				0.015832368284463882
			],
			"translation":[
				-9.760519981384277,
				0,
				6.038882255554199
			]
		},
		{
			"mesh":0,
			"name":"Object_2",
			"rotation":[
				-0.70710688829422,
				0,
				0,
				0.7071066498756409
			],
			"scale":[
				0.015832366421818733,
				0.015832368284463882,
				0.015832368284463882
			],
			"translation":[
				-9.760519981384277,
				0,
				6.038882255554199
			]
		},
		{
			"mesh":1,
			"name":"Object_3",
			"rotation":[
				-0.70710688829422,
				0,
				0,
				0.7071066498756409
			],
			"scale":[
				0.015832366421818733,
				0.015832368284463882,
				0.015832368284463882
			],
			"translation":[
				-9.760519981384277,
				0,
				6.038882255554199
			]
		},
		{
			"mesh":2,
			"name":"Object_4",
			"rotation":[
				-0.70710688829422,
				0,
				0,
				0.7071066498756409
			],
			"scale":[
				0.015832366421818733,
				0.015832368284463882,
				0.015832368284463882
			],
			"translation":[
				-9.760519981384277,
				0,
				6.038882255554199
			]
		}
	],
	"materials":[
		{
			"doubleSided":true,
			"name":"material",
			"pbrMetallicRoughness":{
				"metallicFactor":0
			}
		},
		{
			"doubleSided":true,
			"name":"Ash_1",
			"pbrMetallicRoughness":{
				"metallicFactor":0
			}
		},
		{
			"alphaMode":"BLEND",
			"doubleSided":true,
			"extensions":{
				"KHR_materials_clearcoat":{
					"clearcoatFactor":1,
					"clearcoatRoughnessFactor":0.03999999910593033
				},
				"KHR_materials_transmission":{
					"transmissionFactor":0.8462753295898438
				}
			},
			"name":"Glass_Solid_Grey",
			"pbrMetallicRoughness":{
				"baseColorFactor":[
					0.9989252686500549,
					0.9989252686500549,
					0.9989252686500549,
					0.25
				],
				"metallicFactor":0,
				"roughnessFactor":0.46927937865257263
			}
		}
	],
	"meshes":[
		{
			"name":"Object_0",
			"primitives":[
				{
					"attributes":{
						"POSITION":0,
						"NORMAL":1,
						"TEXCOORD_0":2
					},
					"indices":3,
					"material":0
				}
			]
		},
		{
			"name":"Object_1",
			"primitives":[
				{
					"attributes":{
						"POSITION":4,
						"NORMAL":5,
						"TEXCOORD_0":6
					},
					"indices":7,
					"material":1
				}
			]
		},
		{
			"name":"Object_2",
			"primitives":[
				{
					"attributes":{
						"POSITION":8,
						"NORMAL":9,
						"TEXCOORD_0":10
					},
					"indices":11,
					"material":2
				}
			]
		}
	],
	"accessors":[
		{
			"bufferView":0,
			"componentType":5126,
			"count":6804,
			"max":[
				1054.449951171875,
				278.8299865722656,
				382.59100341796875
			],
			"min":[
				258.1099853515625,
				115.21800231933594,
				2.887190103530884
			],
			"type":"VEC3"
		},
		{
			"bufferView":1,
			"componentType":5126,
			"count":6804,
			"type":"VEC3"
		},
		{
			"bufferView":2,
			"componentType":5126,
			"count":6804,
			"type":"VEC2"
		},
		{
			"bufferView":3,
			"componentType":5123,
			"count":32400,
			"type":"SCALAR"
		},
		{
			"bufferView":4,
			"componentType":5126,
			"count":6814,
			"max":[
				1023.4099731445312,
				846.3419799804688,
				379.7040100097656
			],
			"min":[
				577.6279907226562,
				144.8769989013672,
				3.4166901059506927e-06
			],
			"type":"VEC3"
		},
		{
			"bufferView":5,
			"componentType":5126,
			"count":6814,
			"type":"VEC3"
		},
		{
			"bufferView":6,
			"componentType":5126,
			"count":6814,
			"type":"VEC2"
		},
		{
			"bufferView":7,
			"componentType":5123,
			"count":32400,
			"type":"SCALAR"
		},
		{
			"bufferView":8,
			"componentType":5126,
			"count":5714,
			"max":[
				1290.5400390625,
				949.302001953125,
				402.364013671875
			],
			"min":[
				-25.635299682617188,
				1.4538099765777588,
				383.364013671875
			],
			"type":"VEC3"
		},
		{
			"bufferView":9,
			"componentType":5126,
			"count":5714,
			"type":"VEC3"
		},
		{
			"bufferView":10,
			"componentType":5126,
			"count":5714,
			"type":"VEC2"
		},
		{
			"bufferView":11,
			"componentType":5123,
			"count":27630,
			"type":"SCALAR"
		}
	],
	"bufferViews":[
		{
			"buffer":0,
			"byteLength":81648,
			"byteOffset":0,
			"target":34962
		},
		{
			"buffer":0,
			"byteLength":81648,
			"byteOffset":81648,
			"target":34962
		},
		{
			"buffer":0,
			"byteLength":54432,
			"byteOffset":163296,
			"target":34962
		},
		{
			"buffer":0,
			"byteLength":64800,
			"byteOffset":217728,
			"target":34963
		},
		{
			"buffer":0,
			"byteLength":81768,
			"byteOffset":282528,
			"target":34962
		},
		{
			"buffer":0,
			"byteLength":81768,
			"byteOffset":364296,
			"target":34962
		},
		{
			"buffer":0,
			"byteLength":54512,
			"byteOffset":446064,
			"target":34962
		},
		{
			"buffer":0,
			"byteLength":64800,
			"byteOffset":500576,
			"target":34963
		},
		{
			"buffer":0,
			"byteLength":68568,
			"byteOffset":565376,
			"target":34962
		},
		{
			"buffer":0,
			"byteLength":68568,
			"byteOffset":633944,
			"target":34962
		},
		{
			"buffer":0,
			"byteLength":45712,
			"byteOffset":702512,
			"target":34962
		},
		{
			"buffer":0,
			"byteLength":55260,
			"byteOffset":748224,
			"target":34963
		}
	],
	"buffers":[
		{
			"byteLength":803484,
			"uri":"new.bin"
		}
	]
}
