{
	"asset":{
		"generator":"Khronos glTF Blender I/O v4.1.63",
		"version":"2.0"
	},
	"scene":0,
	"scenes":[
		{
			"name":"Scene",
			"nodes":[
				4
			]
		}
	],
	"nodes":[
		{
			"mesh":0,
			"name":"Low_Poly_Male_body:Group2_lambert1_0"
		},
		{
			"children":[
				0
			],
			"name":"Low_Poly_Male_body:Group2"
		},
		{
			"children":[
				1
			],
			"name":"RootNode"
		},
		{
			"children":[
				2
			],
			"name":"89a20444064049c0a6f05660930fa81f.fbx",
			"rotation":[
				0.70710688829422,
				0,
				0,
				0.7071066498756409
			]
		},
		{
			"children":[
				3
			],
			"name":"Sketchfab_model",
			"rotation":[
				-0.70710688829422,
				0,
				0,
				0.7071066498756409
			],
			"scale":[
				0.02963962033390999,
				0.029639624059200287,
				0.029639624059200287
			]
		}
	],
	"materials":[
		{
			"doubleSided":true,
			"name":"Material.001",
			"pbrMetallicRoughness":{
				"baseColorFactor":[
					0.49634093046188354,
					0.49634093046188354,
					0.49634093046188354,
					1
				],
				"roughnessFactor":0.19685040414333344
			}
		}
	],
	"meshes":[
		{
			"name":"Low_Poly_Male_body:Group2_lambert1_0",
			"primitives":[
				{
					"attributes":{
						"POSITION":0,
						"NORMAL":1,
						"TEXCOORD_0":2
					},
					"indices":3,
					"material":0
				}
			]
		}
	],
	"accessors":[
		{
			"bufferView":0,
			"componentType":5126,
			"count":41538,
			"max":[
				53.39891052246094,
				180.5357208251953,
				20.647537231445312
			],
			"min":[
				-53.39891052246094,
				0.5811750888824463,
				-16.309463500976562
			],
			"type":"VEC3"
		},
		{
			"bufferView":1,
			"componentType":5126,
			"count":41538,
			"type":"VEC3"
		},
		{
			"bufferView":2,
			"componentType":5126,
			"count":41538,
			"type":"VEC2"
		},
		{
			"bufferView":3,
			"componentType":5123,
			"count":62292,
			"type":"SCALAR"
		}
	],
	"bufferViews":[
		{
			"buffer":0,
			"byteLength":498456,
			"byteOffset":0,
			"target":34962
		},
		{
			"buffer":0,
			"byteLength":498456,
			"byteOffset":498456,
			"target":34962
		},
		{
			"buffer":0,
			"byteLength":332304,
			"byteOffset":996912,
			"target":34962
		},
		{
			"buffer":0,
			"byteLength":124584,
			"byteOffset":1329216,
			"target":34963
		}
	],
	"buffers":[
		{
			"byteLength":1453800,
			"uri":"new.bin"
		}
	]
}
