{
	"asset":{
		"generator":"Khronos glTF Blender I/O v4.1.63",
		"version":"2.0"
	},
	"scene":0,
	"scenes":[
		{
			"name":"Scene",
			"nodes":[
				0
			]
		}
	],
	"nodes":[
		{
			"mesh":0,
			"name":"Z2",
			"rotation":[
				0.7071068286895752,
				0,
				0,
				0.7071068286895752
			]
		}
	],
	"materials":[
		{
			"doubleSided":true,
			"name":"Material.002",
			"pbrMetallicRoughness":{
				"baseColorTexture":{
					"index":0
				},
				"metallicFactor":0.9055117964744568,
				"roughnessFactor":0.09055116772651672
			}
		}
	],
	"meshes":[
		{
			"name":"Z2",
			"primitives":[
				{
					"attributes":{
						"POSITION":0,
						"NORMAL":1,
						"TEXCOORD_0":2
					},
					"indices":3,
					"material":0
				}
			]
		}
	],
	"textures":[
		{
			"sampler":0,
			"source":0
		}
	],
	"images":[
		{
			"mimeType":"image/jpeg",
			"name":"b and w",
			"uri":"b%20and%20w.jpg"
		}
	],
	"accessors":[
		{
			"bufferView":0,
			"componentType":5126,
			"count":42173,
			"max":[
				0.396263986825943,
				0.6256240010261536,
				0.009484739974141121
			],
			"min":[
				-0.3981280028820038,
				-0.41542500257492065,
				-1.9260499477386475
			],
			"type":"VEC3"
		},
		{
			"bufferView":1,
			"componentType":5126,
			"count":42173,
			"type":"VEC3"
		},
		{
			"bufferView":2,
			"componentType":5126,
			"count":42173,
			"type":"VEC2"
		},
		{
			"bufferView":3,
			"componentType":5123,
			"count":92712,
			"type":"SCALAR"
		}
	],
	"bufferViews":[
		{
			"buffer":0,
			"byteLength":506076,
			"byteOffset":0,
			"target":34962
		},
		{
			"buffer":0,
			"byteLength":506076,
			"byteOffset":506076,
			"target":34962
		},
		{
			"buffer":0,
			"byteLength":337384,
			"byteOffset":1012152,
			"target":34962
		},
		{
			"buffer":0,
			"byteLength":185424,
			"byteOffset":1349536,
			"target":34963
		}
	],
	"samplers":[
		{
			"magFilter":9729,
			"minFilter":9987
		}
	],
	"buffers":[
		{
			"byteLength":1534960,
			"uri":"nuevo.bin"
		}
	]
}
