{
	"asset":{
		"generator":"Khronos glTF Blender I/O v4.1.63",
		"version":"2.0"
	},
	"scene":0,
	"scenes":[
		{
			"name":"Scene",
			"nodes":[
				0,
				1,
				2,
				3,
				4
			]
		}
	],
	"nodes":[
		{
			"name":"Sketchfab_model",
			"rotation":[
				-0.70710688829422,
				0,
				0,
				0.7071066498756409
			],
			"scale":[
				1.620175838470459,
				1.620176076889038,
				1.620176076889038
			],
			"translation":[
				-0.003930330276489258,
				0.053196921944618225,
				-0.03650493919849396
			]
		},
		{
			"name":"root",
			"scale":[
				1.620175838470459,
				1.620175838470459,
				1.620175838470459
			],
			"translation":[
				-0.003930330276489258,
				0.053196921944618225,
				-0.03650493919849396
			]
		},
		{
			"name":"GLTF_SceneRootNode",
			"rotation":[
				0.70710688829422,
				0,
				0,
				0.7071066498756409
			],
			"scale":[
				1.620175838470459,
				1.620176076889038,
				1.620176076889038
			],
			"translation":[
				-0.003930330276489258,
				0.053196921944618225,
				-0.03650493919849396
			]
		},
		{
			"name":"marg 2_0",
			"scale":[
				1.620175838470459,
				1.620175838470459,
				1.620175838470459
			],
			"translation":[
				-18.159717559814453,
				-0.6416735053062439,
				-1.8417611122131348
			]
		},
		{
			"mesh":0,
			"name":"Object_4",
			"scale":[
				1.620175838470459,
				1.620175838470459,
				1.620175838470459
			],
			"translation":[
				-0.003930330276489258,
				0.053196921944618225,
				-0.03650493919849396
			]
		}
	],
	"materials":[
		{
			"name":"Material_0.036",
			"normalTexture":{
				"index":0,
				"scale":0.10819080471992493
			},
			"occlusionTexture":{
				"index":1
			},
			"pbrMetallicRoughness":{
				"baseColorTexture":{
					"index":2
				},
				"metallicFactor":0,
				"metallicRoughnessTexture":{
					"index":1
				}
			}
		}
	],
	"meshes":[
		{
			"name":"Object_0.001",
			"primitives":[
				{
					"attributes":{
						"POSITION":0,
						"NORMAL":1,
						"TEXCOORD_0":2,
						"TEXCOORD_1":3,
						"TEXCOORD_2":4
					},
					"indices":5,
					"material":0
				}
			]
		}
	],
	"textures":[
		{
			"sampler":0,
			"source":0
		},
		{
			"sampler":0,
			"source":1
		},
		{
			"sampler":0,
			"source":2
		}
	],
	"images":[
		{
			"mimeType":"image/jpeg",
			"name":"Material_0.036_normal.jpeg",
			"uri":"textures/Material_0.036_normal.jpeg"
		},
		{
			"mimeType":"image/png",
			"name":"Material_0.036_metallicRoughness.png",
			"uri":"textures/Material_0.036_metallicRoughness.png"
		},
		{
			"mimeType":"image/jpeg",
			"name":"Material_0.036_baseColor.jpeg",
			"uri":"textures/Material_0.036_baseColor.jpeg"
		}
	],
	"accessors":[
		{
			"bufferView":0,
			"componentType":5126,
			"count":12899,
			"max":[
				0.2575643062591553,
				0.09576454758644104,
				0.2927268147468567
			],
			"min":[
				-0.2674133777618408,
				-0.247658371925354,
				-0.14556105434894562
			],
			"type":"VEC3"
		},
		{
			"bufferView":1,
			"componentType":5126,
			"count":12899,
			"type":"VEC3"
		},
		{
			"bufferView":2,
			"componentType":5126,
			"count":12899,
			"type":"VEC2"
		},
		{
			"bufferView":3,
			"componentType":5126,
			"count":12899,
			"type":"VEC2"
		},
		{
			"bufferView":4,
			"componentType":5126,
			"count":12899,
			"type":"VEC2"
		},
		{
			"bufferView":5,
			"componentType":5123,
			"count":67710,
			"type":"SCALAR"
		}
	],
	"bufferViews":[
		{
			"buffer":0,
			"byteLength":154788,
			"byteOffset":0,
			"target":34962
		},
		{
			"buffer":0,
			"byteLength":154788,
			"byteOffset":154788,
			"target":34962
		},
		{
			"buffer":0,
			"byteLength":103192,
			"byteOffset":309576,
			"target":34962
		},
		{
			"buffer":0,
			"byteLength":103192,
			"byteOffset":412768,
			"target":34962
		},
		{
			"buffer":0,
			"byteLength":103192,
			"byteOffset":515960,
			"target":34962
		},
		{
			"buffer":0,
			"byteLength":135420,
			"byteOffset":619152,
			"target":34963
		}
	],
	"samplers":[
		{
			"magFilter":9729,
			"minFilter":9987
		}
	],
	"buffers":[
		{
			"byteLength":754572,
			"uri":"new.bin"
		}
	]
}
