{
  "accessors": [
    {
      "bufferView": 2,
      "componentType": 5126,
      "count": 16193,
      "max": [
        0.2575643062591553,
        0.09576454758644104,
        0.2928147315979004
      ],
      "min": [
        -0.2674133777618408,
        -0.247658371925354,
        -0.145561084151268
      ],
      "type": "VEC3"
    },
    {
      "bufferView": 2,
      "byteOffset": 194316,
      "componentType": 5126,
      "count": 16193,
      "max": [
        0.9998384118080139,
        1.0,
        0.9999987483024597
      ],
      "min": [
        -0.999936580657959,
        -0.9995172023773193,
        -0.9999731183052063
      ],
      "type": "VEC3"
    },
    {
      "bufferView": 3,
      "componentType": 5126,
      "count": 16193,
      "max": [
        0.9998838305473328,
        0.9995858073234558,
        0.9999749660491943,
        1.0
      ],
      "min": [
        -0.999991238117218,
        -0.9995383620262146,
        -0.9999971985816956,
        -1.0
      ],
      "type": "VEC4"
    },
    {
      "bufferView": 1,
      "componentType": 5126,
      "count": 16193,
      "max": [
        0.9981647729873657,
        0.9996439218521118
      ],
      "min": [
        5.416024214355275e-05,
        0.0010502338409423828
      ],
      "type": "VEC2"
    },
    {
      "bufferView": 1,
      "byteOffset": 129544,
      "componentType": 5126,
      "count": 16193,
      "max": [
        0.9981647729873657,
        0.9996439218521118
      ],
      "min": [
        5.416024214355275e-05,
        0.0010502338409423828
      ],
      "type": "VEC2"
    },
    {
      "bufferView": 1,
      "byteOffset": 259088,
      "componentType": 5126,
      "count": 16193,
      "max": [
        0.9981647729873657,
        0.9996439218521118
      ],
      "min": [
        5.416024214355275e-05,
        0.0010502338409423828
      ],
      "type": "VEC2"
    },
    {
      "bufferView": 0,
      "componentType": 5125,
      "count": 84504,
      "type": "SCALAR"
    }
  ],
  "asset": {
    "extras": {
      "author": "Alben Tan (https://sketchfab.com/albentan2012)",
      "license": "CC-BY-4.0 (http://creativecommons.org/licenses/by/4.0/)",
      "source": "https://sketchfab.com/3d-models/sleeping-cat-on-the-table-3d-scan-d9c2ee02107a456eac00356bb43ea4bd",
      "title": "Sleeping Cat On The Table - 3D Scan"
    },
    "generator": "Sketchfab-13.68.0",
    "version": "2.0"
  },
  "bufferViews": [
    {
      "buffer": 0,
      "byteLength": 338016,
      "name": "floatBufferViews",
      "target": 34963
    },
    {
      "buffer": 0,
      "byteLength": 388632,
      "byteOffset": 338016,
      "byteStride": 8,
      "name": "floatBufferViews",
      "target": 34962
    },
    {
      "buffer": 0,
      "byteLength": 388632,
      "byteOffset": 726648,
      "byteStride": 12,
      "name": "floatBufferViews",
      "target": 34962
    },
    {
      "buffer": 0,
      "byteLength": 259088,
      "byteOffset": 1115280,
      "byteStride": 16,
      "name": "floatBufferViews",
      "target": 34962
    }
  ],
  "buffers": [
    {
      "byteLength": 1374368,
      "uri": "scene.bin"
    }
  ],
  "images": [
    {
      "uri": "textures/Material_0.036_baseColor.jpeg"
    },
    {
      "uri": "textures/Material_0.036_metallicRoughness.png"
    },
    {
      "uri": "textures/Material_0.036_normal.jpeg"
    }
  ],
  "materials": [
    {
      "name": "Material_0.036",
      "normalTexture": {
        "index": 2,
        "scale": 0.10819080591483707
      },
      "occlusionTexture": {
        "index": 1
      },
      "pbrMetallicRoughness": {
        "baseColorTexture": {
          "index": 0
        },
        "metallicFactor": 0.0,
        "metallicRoughnessTexture": {
          "index": 1
        }
      }
    }
  ],
  "meshes": [
    {
      "name": "Object_0",
      "primitives": [
        {
          "attributes": {
            "NORMAL": 1,
            "POSITION": 0,
            "TANGENT": 2,
            "TEXCOORD_0": 3,
            "TEXCOORD_1": 4,
            "TEXCOORD_2": 5
          },
          "indices": 6,
          "material": 0,
          "mode": 4
        }
      ]
    }
  ],
  "nodes": [
    {
      "children": [
        1
      ],
      "matrix": [
        1.0,
        0.0,
        0.0,
        0.0,
        0.0,
        2.220446049250313e-16,
        -1.0,
        0.0,
        0.0,
        1.0,
        2.220446049250313e-16,
        0.0,
        0.0,
        0.0,
        0.0,
        1.0
      ],
      "name": "Sketchfab_model"
    },
    {
      "children": [
        2
      ],
      "name": "root"
    },
    {
      "children": [
        3
      ],
      "matrix": [
        1.0,
        0.0,
        0.0,
        0.0,
        0.0,
        2.220446049250313e-16,
        1.0,
        0.0,
        0.0,
        -1.0,
        2.220446049250313e-16,
        0.0,
        0.0,
        0.0,
        0.0,
        1.0
      ],
      "name": "GLTF_SceneRootNode"
    },
    {
      "children": [
        4
      ],
      "matrix": [
        1.0,
        0.0,
        0.0,
        0.0,
        0.0,
        1.0,
        0.0,
        0.0,
        0.0,
        0.0,
        1.0,
        0.0,
        -11.206060409545898,
        -0.428885817527771,
        -1.1142346858978271,
        1.0
      ],
      "name": "marg 2_0"
    },
    {
      "mesh": 0,
      "name": "Object_4"
    }
  ],
  "samplers": [
    {
      "magFilter": 9729,
      "minFilter": 9987,
      "wrapS": 10497,
      "wrapT": 10497
    }
  ],
  "scene": 0,
  "scenes": [
    {
      "name": "Sketchfab_Scene",
      "nodes": [
        0
      ]
    }
  ],
  "textures": [
    {
      "sampler": 0,
      "source": 0
    },
    {
      "sampler": 0,
      "source": 1
    },
    {
      "sampler": 0,
      "source": 2
    }
  ]
}
