{
    "asset" : {
        "generator" : "Khronos glTF Blender I/O v1.8.19",
        "version" : "2.0"
    },
    "scene" : 0,
    "scenes" : [
        {
            "name" : "Scene",
            "nodes" : [
                0
            ]
        }
    ],
    "nodes" : [
        {
            "mesh" : 0,
            "name" : "toroidal_rind_3d_surface",
            "rotation" : [
                0.7071068286895752,
                0,
                0,
                0.7071067094802856
            ],
            "scale" : [
                0.061556458473205566,
                0.061556458473205566,
                0.061556458473205566
            ]
        }
    ],
    "materials" : [
        {
            "doubleSided" : true,
            "name" : "material_0",
            "pbrMetallicRoughness" : {
                "baseColorFactor" : [
                    0.800000011920929,
                    0.800000011920929,
                    0.800000011920929,
                    1
                ],
                "metallicFactor" : 0,
                "roughnessFactor" : 0.5
            }
        }
    ],
    "meshes" : [
        {
            "name" : "toroidal_rind_3d_surface",
            "primitives" : [
                {
                    "attributes" : {
                        "POSITION" : 0,
                        "NORMAL" : 1,
                        "TEXCOORD_0" : 2
                    },
                    "indices" : 3,
                    "material" : 0
                }
            ]
        }
    ],
    "accessors" : [
        {
            "bufferView" : 0,
            "componentType" : 5126,
            "count" : 1728,
            "max" : [
                9.85600471496582,
                1.97120201587677,
                9.85600471496582
            ],
            "min" : [
                -9.85600471496582,
                -1.97120201587677,
                -9.85600471496582
            ],
            "type" : "VEC3"
        },
        {
            "bufferView" : 1,
            "componentType" : 5126,
            "count" : 1728,
            "type" : "VEC3"
        },
        {
            "bufferView" : 2,
            "componentType" : 5126,
            "count" : 1728,
            "type" : "VEC2"
        },
        {
            "bufferView" : 3,
            "componentType" : 5123,
            "count" : 10368,
            "type" : "SCALAR"
        }
    ],
    "bufferViews" : [
        {
            "buffer" : 0,
            "byteLength" : 20736,
            "byteOffset" : 0
        },
        {
            "buffer" : 0,
            "byteLength" : 20736,
            "byteOffset" : 20736
        },
        {
            "buffer" : 0,
            "byteLength" : 13824,
            "byteOffset" : 41472
        },
        {
            "buffer" : 0,
            "byteLength" : 20736,
            "byteOffset" : 55296
        }
    ],
    "buffers" : [
        {
            "byteLength" : 76032,
            "uri" : "data:application/octet-stream;base64,"
        }
    ]
}
