{
	"asset":{
		"generator":"Khronos glTF Blender I/O v4.1.63",
		"version":"2.0"
	},
	"scene":0,
	"scenes":[
		{
			"name":"Scene",
			"nodes":[
				0,
				1
			]
		}
	],
	"nodes":[
		{
			"name":"Scene"
		},
		{
			"mesh":0,
			"name":"Obj_000001",
			"rotation":[
				0.70710688829422,
				0,
				0,
				0.7071066498756409
			],
			"scale":[
				0.12352961301803589,
				0.12352960556745529,
				0.12352960556745529
			]
		}
	],
	"materials":[
		{
			"doubleSided":true,
			"name":"Material.003",
			"pbrMetallicRoughness":{
				"baseColorTexture":{
					"index":0
				},
				"metallicFactor":0,
				"roughnessFactor":0.5
			}
		}
	],
	"meshes":[
		{
			"name":"Obj_000001",
			"primitives":[
				{
					"attributes":{
						"POSITION":0,
						"NORMAL":1,
						"TEXCOORD_0":2
					},
					"indices":3,
					"material":0
				}
			]
		}
	],
	"textures":[
		{
			"sampler":0,
			"source":0
		}
	],
	"images":[
		{
			"mimeType":"image/jpeg",
			"name":"b and w",
			"uri":"b%20and%20w.jpg"
		}
	],
	"accessors":[
		{
			"bufferView":0,
			"componentType":5126,
			"count":82263,
			"max":[
				18.565288543701172,
				18.62917709350586,
				40.37340545654297
			],
			"min":[
				-18.630538940429688,
				-18.552841186523438,
				-41.58112335205078
			],
			"type":"VEC3"
		},
		{
			"bufferView":1,
			"componentType":5126,
			"count":82263,
			"type":"VEC3"
		},
		{
			"bufferView":2,
			"componentType":5126,
			"count":82263,
			"type":"VEC2"
		},
		{
			"bufferView":3,
			"componentType":5125,
			"count":350784,
			"type":"SCALAR"
		}
	],
	"bufferViews":[
		{
			"buffer":0,
			"byteLength":987156,
			"byteOffset":0,
			"target":34962
		},
		{
			"buffer":0,
			"byteLength":987156,
			"byteOffset":987156,
			"target":34962
		},
		{
			"buffer":0,
			"byteLength":658104,
			"byteOffset":1974312,
			"target":34962
		},
		{
			"buffer":0,
			"byteLength":1403136,
			"byteOffset":2632416,
			"target":34963
		}
	],
	"samplers":[
		{
			"magFilter":9729,
			"minFilter":9987
		}
	],
	"buffers":[
		{
			"byteLength":4035552,
			"uri":"spiral4.bin"
		}
	]
}
